<svg xmlns="http://www.w3.org/2000/svg" width="800" height="450" viewBox="0 0 800 450" fill="none">
  <defs>
    <linearGradient id="bg" x1="0" y1="0" x2="800" y2="450" gradientUnits="userSpaceOnUse">
      <stop offset="0" stop-color="#1e3a8a"/>
      <stop offset="0.55" stop-color="#3730a3"/>
      <stop offset="1" stop-color="#6d28d9"/>
    </linearGradient>
    <linearGradient id="accent" x1="0" y1="0" x2="1" y2="1">
      <stop offset="0" stop-color="#60a5fa"/>
      <stop offset="1" stop-color="#a78bfa"/>
    </linearGradient>
  </defs>
  <rect width="800" height="450" fill="url(#bg)"/>
  <g opacity="0.12" stroke="#ffffff" stroke-width="1">
    <circle cx="640" cy="90" r="60"/>
    <circle cx="700" cy="360" r="90"/>
    <circle cx="120" cy="380" r="50"/>
  </g>
  <g transform="translate(64,150)">
    <rect x="0" y="0" width="56" height="56" rx="14" fill="url(#accent)"/>
    <path d="M14 38 L28 14 L42 38 Z" fill="#1e3a8a"/>
  </g>
  <text x="64" y="262" font-family="Segoe UI, Arial, sans-serif" font-size="46" font-weight="700" fill="#ffffff">UniAssist</text>
  <text x="64" y="300" font-family="Segoe UI, Arial, sans-serif" font-size="22" fill="#c7d2fe">AI-Powered University Assistant</text>
  <g transform="translate(64,330)" font-family="Segoe UI, Arial, sans-serif" font-size="15" fill="#1e1b4b">
    <rect x="0" y="0" width="64" height="30" rx="15" fill="#e0e7ff"/><text x="32" y="20" text-anchor="middle">RAG</text>
    <rect x="76" y="0" width="64" height="30" rx="15" fill="#e0e7ff"/><text x="108" y="20" text-anchor="middle">LLMs</text>
    <rect x="152" y="0" width="84" height="30" rx="15" fill="#e0e7ff"/><text x="194" y="20" text-anchor="middle">FastAPI</text>
    <rect x="248" y="0" width="74" height="30" rx="15" fill="#e0e7ff"/><text x="285" y="20" text-anchor="middle">MERN</text>
  </g>
</svg>
